<svg width="42" height="42" viewBox="0 0 42 42" fill="none" xmlns="http://www.w3.org/2000/svg">
<circle cx="21" cy="21" r="21" fill="url(#paint0_linear_58068_51)"/>
<path d="M20.7347 35.8368L8.00005 18.2701L15.0264 18.2701L17.6607 26.1754L20.7347 35.8368Z" fill="url(#paint1_linear_58068_51)"/>
<path d="M20.736 35.8361L33.4716 18.2701L26.4453 18.2701L20.736 35.8361Z" fill="url(#paint2_linear_58068_51)"/>
<path d="M20.7354 34.958L16.3438 18.27H25.127L20.7354 34.958Z" fill="url(#paint3_linear_58068_51)"/>
<path d="M20.7359 14.3174L24.2492 17.8307H17.2227L20.7359 14.3174Z" fill="url(#paint4_linear_58068_51)"/>
<path d="M11.5133 13.8782L15.0265 17.8306H8L11.5133 13.8782Z" fill="url(#paint5_linear_58068_51)"/>
<path d="M29.9579 13.8782L33.4712 17.8306H26.4447L29.9579 13.8782Z" fill="url(#paint6_linear_58068_51)"/>
<path d="M16.3438 17.8306L11.513 13.8781L15.9046 12.9998H20.7354L16.3438 17.8306Z" fill="url(#paint7_linear_58068_51)"/>
<path d="M25.1273 17.8306L20.7357 12.9998H25.5664L29.958 13.8781L25.1273 17.8306Z" fill="url(#paint8_linear_58068_51)"/>
<defs>
<linearGradient id="paint0_linear_58068_51" x1="21" y1="0" x2="21" y2="42" gradientUnits="userSpaceOnUse">
<stop stop-color="#9FADE2"/>
<stop offset="1" stop-color="#CCE3FD"/>
</linearGradient>
<linearGradient id="paint1_linear_58068_51" x1="20.2177" y1="36.1916" x2="7.9443" y2="18.3082" gradientUnits="userSpaceOnUse">
<stop offset="0.836538" stop-color="white"/>
<stop offset="1" stop-color="#EAE2E2"/>
</linearGradient>
<linearGradient id="paint2_linear_58068_51" x1="21.254" y1="36.1916" x2="33.5274" y2="18.3082" gradientUnits="userSpaceOnUse">
<stop offset="0.836538" stop-color="white"/>
<stop offset="1" stop-color="#EAE2E2"/>
</linearGradient>
<linearGradient id="paint3_linear_58068_51" x1="20.7354" y1="34.958" x2="20.7354" y2="18.27" gradientUnits="userSpaceOnUse">
<stop offset="0.836538" stop-color="white"/>
<stop offset="1" stop-color="#EAE2E2"/>
</linearGradient>
<linearGradient id="paint4_linear_58068_51" x1="20.7359" y1="14.3174" x2="20.7359" y2="17.8307" gradientUnits="userSpaceOnUse">
<stop offset="0.836538" stop-color="white"/>
<stop offset="1" stop-color="#EAE2E2"/>
</linearGradient>
<linearGradient id="paint5_linear_58068_51" x1="20.7356" y1="13.8782" x2="20.7356" y2="17.8306" gradientUnits="userSpaceOnUse">
<stop offset="0.836538" stop-color="white"/>
<stop offset="1" stop-color="#EAE2E2"/>
</linearGradient>
<linearGradient id="paint6_linear_58068_51" x1="20.7356" y1="13.8782" x2="20.7356" y2="17.8306" gradientUnits="userSpaceOnUse">
<stop offset="0.836538" stop-color="white"/>
<stop offset="1" stop-color="#EAE2E2"/>
</linearGradient>
<linearGradient id="paint7_linear_58068_51" x1="16.1242" y1="17.8306" x2="16.1242" y2="12.9998" gradientUnits="userSpaceOnUse">
<stop offset="0.836538" stop-color="white"/>
<stop offset="1" stop-color="#EAE2E2"/>
</linearGradient>
<linearGradient id="paint8_linear_58068_51" x1="25.3468" y1="17.8306" x2="25.3468" y2="12.9998" gradientUnits="userSpaceOnUse">
<stop offset="0.836538" stop-color="white"/>
<stop offset="1" stop-color="#EAE2E2"/>
</linearGradient>
</defs>
</svg>
