<svg width="25" height="24" viewBox="0 0 25 24" fill="none" xmlns="http://www.w3.org/2000/svg">
<path fill-rule="evenodd" clip-rule="evenodd" d="M14.3996 8.171C13.9856 8.171 13.6496 7.835 13.6496 7.421V5C13.6496 4.586 13.9856 4.25 14.3996 4.25C14.8136 4.25 15.1496 4.586 15.1496 5V7.421C15.1496 7.835 14.8136 8.171 14.3996 8.171Z" fill="#9E9E9E"/>
<path fill-rule="evenodd" clip-rule="evenodd" d="M14.3996 21.2837C13.9856 21.2837 13.6496 20.9477 13.6496 20.5337V18.5107C13.6496 18.0957 13.9856 17.7607 14.3996 17.7607C14.8136 17.7607 15.1496 18.0957 15.1496 18.5107V20.5337C15.1496 20.9477 14.8136 21.2837 14.3996 21.2837Z" fill="#9E9E9E"/>
<path fill-rule="evenodd" clip-rule="evenodd" d="M14.3996 15.8249C13.9856 15.8249 13.6496 15.4889 13.6496 15.0749V10.2539C13.6496 9.83991 13.9856 9.50391 14.3996 9.50391C14.8136 9.50391 15.1496 9.83991 15.1496 10.2539V15.0749C15.1496 15.4889 14.8136 15.8249 14.3996 15.8249Z" fill="#9E9E9E"/>
<mask id="mask0_1036_10723" style="mask-type:luminance" maskUnits="userSpaceOnUse" x="1" y="4" width="23" height="18">
<path fill-rule="evenodd" clip-rule="evenodd" d="M1.79999 4H23.3V21.4997H1.79999V4Z" fill="white"/>
</mask>
<g mask="url(#mask0_1036_10723)">
<path fill-rule="evenodd" clip-rule="evenodd" d="M3.29999 15.554V17.493C3.29999 18.875 4.44299 20 5.84799 20H19.252C20.657 20 21.8 18.875 21.8 17.493V15.554C20.549 15.225 19.623 14.093 19.623 12.751C19.623 11.408 20.548 10.277 21.8 9.948L21.799 8.007C21.799 6.625 20.656 5.5 19.251 5.5H5.84899C4.44399 5.5 3.30099 6.625 3.30099 8.007L3.29999 10.025C4.56699 10.336 5.47699 11.422 5.47699 12.751C5.47699 14.093 4.55099 15.225 3.29999 15.554ZM19.252 21.5H5.84799C3.61599 21.5 1.79999 19.702 1.79999 17.493V14.901C1.79999 14.487 2.13599 14.151 2.54999 14.151C3.33699 14.151 3.97699 13.523 3.97699 12.751C3.97699 12.001 3.36299 11.435 2.54999 11.435C2.35099 11.435 2.15999 11.356 2.01999 11.215C1.87899 11.075 1.79999 10.883 1.79999 10.685L1.80099 8.007C1.80099 5.798 3.61699 4 5.84899 4H19.251C21.483 4 23.299 5.798 23.299 8.007L23.3 10.601C23.3 10.799 23.221 10.991 23.08 11.131C22.94 11.272 22.749 11.351 22.55 11.351C21.763 11.351 21.123 11.979 21.123 12.751C21.123 13.523 21.763 14.151 22.55 14.151C22.964 14.151 23.3 14.487 23.3 14.901V17.493C23.3 19.702 21.484 21.5 19.252 21.5Z" fill="#9E9E9E"/>
</g>
</svg>
