<svg width="25" height="25" viewBox="0 0 25 25" fill="none" xmlns="http://www.w3.org/2000/svg"><path
    d="M19.5663 21.9473H5.44524C4.98297 21.9473 4.54686 21.7379 4.27648 21.3889C4.15357 21.2319 4.0684 21.0487 4.02756
    20.8535C3.98673 20.6583 3.99132 20.4564 4.04098 20.2632C4.22079 19.562 4.57742 18.9185 5.07677 18.3945C5.57612 17.8705 6.2015 17.4834
6.8931 17.2703L9.29783 16.544C9.51687 16.4778 9.66673 16.276 9.66673 16.0472C9.66673 15.7918 9.48064 15.5753
9.22957 15.5283C8.45128 15.3826 7.71839 15.182 7.04138 14.9317C6.95481 14.9001 6.87593 14.8505 6.80994 14.7862C6.74395
14.7218 6.69235 14.6442 6.65855 14.5584C6.62476 14.4727 6.60953 14.3807 6.61388 14.2886C6.61822 14.1965 6.64205 14.1064
 6.68377 14.0242C7.07627 13.2389 7.4862 12.0434 7.4862 9.16387C7.4862 5.64732 9.54462 4.57403 10.4255 4.27735C11.1526
4.03344 11.9339 3.99389 12.6525 4.13048C13.9597 4.37895 15.4775 4.68365 16.4787 5.56006C17.5166 6.44138 17.5166  8.10803
17.5166 10.0365C17.5166 11.9649 18.0399 13.4832 18.319 14.0329C18.3609 14.1151 18.3848 14.2052 18.3893 14.2974C18.3937
14.3895 18.3785 14.4815 18.3447 14.5673C18.3109 14.6531 18.2592 14.7308 18.1931 14.7951C18.1271 14.8594 18.0481 14.9089
17.9614 14.9404C17.2844 15.1907 16.5515 15.3914 15.7732 15.537C15.5222 15.584 15.3361 15.8005 15.3361 16.0559C15.3361
16.2847 15.4859 16.4866 15.705 16.5527L18.1097 17.279C19.514 17.7065 20.6042 18.8496 20.9618 20.2632C21.0578 20.6559
20.9705 21.066 20.7263 21.3889C20.4559 21.7379 20.0198 21.9473 19.5576 21.9473H19.5663ZM8.17092 13.9457C8.16926 13.9424
8.17237 13.9387 8.17592 13.9398C8.86247 14.1477 9.618 14.2952 10.4081 14.3994C10.7395 14.4431 10.9838 14.7223 10.9838
15.0451V16.9299C10.9838 17.2179 10.7919 17.471 10.5215 17.5582L7.27688 18.5355C6.36629 18.8088 5.6364 19.538 5.35566
20.4471C5.3256 20.5444 5.35207 20.6472 5.45396 20.6472H19.575C19.6742 20.6472 19.7016 20.5416 19.6711 20.4471C19.5349
20.0249 19.3047 19.6383 18.9971 19.3169C18.6539 18.9584 18.2256 18.6925 17.7521 18.5442L14.5162 17.5669C14.382 17.5257
14.2645 17.4424 14.1813 17.3292C14.098 17.2161 14.0534 17.0792 14.0539 16.9387V15.0539C14.0539 14.7223 14.2982 14.4431
14.6296 14.4081C15.8745 14.2457 16.5242 12.9485 16.3505 11.7051C16.2789 11.1925 16.2345 10.6375 16.2345 10.0539C16.2345
        8.43961 16.2345 7.06964 15.6588 6.58099C15.4059 6.37157 14.9785 6.31049 14.3767 6.40647C14.2587 6.42872 14.1369
        6.41671 14.0257 6.37186C13.9144 6.32701 13.8182 6.25121 13.7487 6.15342C13.2864 5.54261 12.013 5.14994 10.8617
         5.54261C9.54462 5.98763 8.81196 7.28779 8.81196 9.19004C8.81196 11.6428 8.52598 13.0206 8.17862 13.9454C8.17732
          13.9489 8.17257 13.949 8.17092 13.9457Z"
        fill="white" />
    <path
        d="M7 21.6074C7 21.2719 7.27193 21 7.60736 21H18.3694C18.7177 21 19 21.2823 19 21.6306C19 22.9392 17.9392
        24 16.6306 24H9.39264C8.07122 24 7 22.9288 7 21.6074Z"
        fill="white" />
</svg>
