<svg width="19" height="19" viewBox="0 0 19 19" fill="none" xmlns="http://www.w3.org/2000/svg">
<path d="M0.750043 10.1881L8.51781 2.33214C9.4694 1.36974 10.7858 0.801754 12.1774 0.753158C13.5691 0.704562 14.9219 1.17934 15.9383 2.07301C16.9547 2.96668 17.5515 4.20611 17.5973 5.51861C17.6432 6.83101 17.1343 8.10905 16.1827 9.07144L8.41491 16.9275C7.78052 17.5691 6.9029 17.9477 5.97516 17.9801C5.04743 18.0125 4.14553 17.696 3.46793 17.1002C2.79032 16.5044 2.39244 15.6781 2.36189 14.8032C2.33133 13.9282 2.6706 13.0762 3.305 12.4346L11.0815 4.57834C11.3987 4.25747 11.8375 4.06814 12.3014 4.05194C12.7653 4.03574 13.2162 4.194 13.555 4.49196C13.8938 4.78982 14.0928 5.20293 14.108 5.64046C14.1233 6.07789 13.9537 6.50397 13.6365 6.82474L6.46014 14.0741" stroke="black" stroke-opacity="0.5" stroke-width="1.5" stroke-linecap="round" stroke-linejoin="round"/>
</svg>
